:SAMPLES-PER-SECOND 30
:FULLY-SPECIFIED
:DEGREES
212
root  -26.6558 32.2057 19.2013 14.8264 -82.8486 -14.464
RightUpLeg  6.31042 8.3925 6.18679
RightLeg  23.4939 -0.195918 -0.0739213
RightFoot  -12.8191 -0.0366518 0.0512845
RightToes  -29.9525 -0.143594 -0.251636
Spine  5.08312 1.53192 -2.88235
Spine1  9.32226 4.19125 -6.96794
HEad  21.5888 -34.4666 25.2998
LeftShoulder1  0 -2.42657e-020 -4.95415e-022
LeftArm  -55.1415 26.3983 -77.0642
LeftForeArm  62.2604 -14.4819 -2.55672
LeftHand  0.219927 -8.21671 -3.43399
RightShoulder  0 2.42657e-020 1.07489e-018
RightArm  3.33401 7.35065 80.2602
RightForeArm  47.6811 61.9475 19.4046
RightHand  1.68735 24.5908 8.10269
LeftUpLeg  -26.369 11.1638 1.50859
LeftLeg  11.1024 -4.55566 -0.593983
LeftFoot  19.9991 0.251094 -1.42403
LeftToes  -16.45 1.33192e-006 1.13262e-007
213
root  -25.5535 32.2659 18.5814 30.2856 -84.9837 -31.0235
RightUpLeg  6.12213 11.5548 8.15051
RightLeg  22.1561 -1.0607 -0.356765
RightFoot  -13.3619 -0.015111 0.248558
RightToes  -24.6487 -0.108861 -0.213108
Spine  5.20027 1.28117 -2.33199
Spine1  9.7023 3.55498 -5.75575
HEad  22.9857 -34.2808 25.1176
LeftShoulder1  0 -2.42657e-020 -4.95415e-022
LeftArm  -63.6728 28.9097 -79.7554
LeftForeArm  69.1954 -12.9681 -2.25783
LeftHand  0.250373 -8.42178 -3.77262
RightShoulder  0 2.42657e-020 1.07489e-018
RightArm  6.25152 5.75956 80.3207
RightForeArm  48.9538 58.5972 16.8385
RightHand  1.16159 24.6954 5.67412
LeftUpLeg  -25.0751 16.0257 2.64165
LeftLeg  8.36222 -5.5701 -0.456264
LeftFoot  17.3627 0.239006 -1.56523
LeftToes  -16.0703 1.33192e-006 1.13262e-007
214
root  -24.4435 32.3615 18.0067 49.7231 -85.4758 -51.4453
RightUpLeg  5.49982 12.8741 9.8975
RightLeg  21.3664 -1.36693 -0.437712
RightFoot  -12.7556 -0.00872121 0.299541
RightToes  -21.7204 -0.0912557 -0.190509
Spine  5.3451 0.834766 -1.70205
Spine1  10.1319 2.52334 -4.41527
HEad  24.1799 -35.4256 25.6375
LeftShoulder1  0 -2.42657e-020 -4.95415e-022
LeftArm  -71.1019 30.1588 -81.9378
LeftForeArm  78.1338 -11.2085 -1.91017
LeftHand  0.382228 -9.13209 -5.1572
RightShoulder  0 2.42657e-020 1.07489e-018
RightArm  5.79433 3.00248 80.7228
RightForeArm  47.3403 53.9205 14.0293
RightHand  0.862447 24.4926 4.34301
LeftUpLeg  -25.3265 20.4966 3.50094
LeftLeg  9.8039 -5.16456 -0.55431
LeftFoot  16.4422 0.200567 -1.38816
LeftToes  -20.4836 1.33192e-006 1.13262e-007
215
root  -23.3502 32.5478 17.4965 61.566 -85.5672 -64.3053
RightUpLeg  4.50201 13.1518 10.8429
RightLeg  21.3099 -1.13145 -0.361424
RightFoot  -11.0536 -0.0163378 0.208715
RightToes  -20.8411 -0.0861968 -0.18355
Spine  5.6089 0.352787 -1.01956
Spine1  10.7966 1.4389 -3.01141
HEad  24.0616 -37.2442 26.6386
LeftShoulder1  0 -2.42657e-020 -4.95415e-022
LeftArm  -74.1131 29.7937 -83.4542
LeftForeArm  85.0956 -7.11973 -1.15369
LeftHand  0.50467 -9.44807 -6.47598
RightShoulder  0 2.42657e-020 1.07489e-018
RightArm  2.21442 -0.3729 81.1669
RightForeArm  45.9388 48.5894 11.5398
RightHand  0.72122 24.0682 3.75321
LeftUpLeg  -26.034 22.6292 4.49256
LeftLeg  16.4995 -4.27525 -0.973634
LeftFoot  15.8078 0.154276 -1.11122
LeftToes  -20.0688 1.33192e-006 1.13262e-007
216
root  -22.2993 32.7966 17.1021 63.8595 -86.3771 -67.2532
RightUpLeg  3.04385 12.8925 10.2407
RightLeg  21.567 -0.265029 -0.0876801
RightFoot  -9.02698 -0.0277316 0.0262455
RightToes  -21.6758 -0.0869553 -0.184604
Spine  5.74197 -0.175847 -0.977415
Spine1  11.1343 0.285764 -2.82927
HEad  23.6133 -39.4041 28.7219
LeftShoulder1  0 -2.42657e-020 -4.95415e-022
LeftArm  -75.3252 29.0868 -84.0353
LeftForeArm  90.3889 -5.09344 -0.778262
LeftHand  0.564827 -9.63759 -7.06741
RightShoulder  0 2.42657e-020 1.07489e-018
RightArm  -4.33031 -3.86202 82.7439
RightForeArm  44.4748 41.2998 8.90327
RightHand  0.327642 23.6858 1.93291
LeftUpLeg  -26.1624 22.977 4.56318
LeftLeg  24.5917 -2.86064 -1.09531
LeftFoot  13.1655 0.0721972 -0.625634
LeftToes  -19.0788 1.33192e-006 1.13262e-007
217
root  -21.2968 33.0539 16.7762 61.6496 -87.3969 -65.5522
RightUpLeg  2.10092 13.6692 9.63948
RightLeg  20.9973 -0.740937 -0.232785
RightFoot  -6.98954 -0.0189232 0.0677001
RightToes  -21.3697 -0.089225 -0.187743
Spine  5.81462 -0.708053 -0.983208
Spine1  11.3324 -0.823783 -2.79211
HEad  23.2629 -41.515 29.9313
LeftShoulder1  0 -2.42657e-020 -4.95415e-022
LeftArm  -75.3745 27.9562 -84.5258
LeftForeArm  91.634 -4.25385 -0.626366
LeftHand  0.594607 -10.1967 -7.03188
RightShoulder  0 2.42657e-020 1.07489e-018
RightArm  -14.4005 -7.04668 84.4561
RightForeArm  43.8076 33.0306 6.56574
RightHand  -0.0117631 23.2923 0.313022
LeftUpLeg  -25.3828 22.6852 4.29293
LeftLeg  32.3327 -0.52357 -0.290121
LeftFoot  9.40541 0.00307555 -0.0373961
LeftToes  -17.7947 1.33192e-006 1.13262e-007
218
root  -20.3465 33.2346 16.56 38.0074 -87.1846 -42.2359
RightUpLeg  1.3977 13.3603 9.17593
RightLeg  19.82 -1.32477 -0.384423
RightFoot  -5.0832 -0.0133427 0.0769704
RightToes  -21.0996 -0.0901205 -0.189401
Spine  5.83082 -1.68742 -0.702983
Spine1  11.4127 -2.85517 -2.27285
HEad  22.6941 -42.7595 30.2405
LeftShoulder1  0 -2.42657e-020 -4.95415e-022
LeftArm  -73.7651 26.6985 -85.2816
LeftForeArm  89.5613 -4.38425 -0.655897
LeftHand  0.609988 -11.4661 -6.44399
RightShoulder  0 2.42657e-020 1.07489e-018
RightArm  -27.7275 -10.2536 85.3466
RightForeArm  44.4528 27.4831 5.24167
RightHand  -0.391753 22.2471 -1.6227
LeftUpLeg  -23.9798 20.2824 4.07305
LeftLeg  39.2253 2.50584 1.78394
LeftFoot  4.48299 -0.0108482 0.277144
LeftToes  -13.7918 1.33192e-006 1.13262e-007
219
root  -19.3202 33.33 16.3164 32.097 -87.1547 -36.0513
RightUpLeg  -0.424974 13.5703 8.81462
RightLeg  19.3468 -1.57979 -0.443826
RightFoot  -3.31045 -0.00887775 0.0366177
RightToes  -21.5297 -0.0905185 -0.190916
Spine  5.51306 -2.45916 -0.353749
Spine1  10.8676 -4.55584 -1.4949
HEad  22.3513 -42.9314 29.8509
LeftShoulder1  0 -2.42657e-020 -4.95415e-022
LeftArm  -65.6496 26.0917 -86.2797
LeftForeArm  80.4177 -6.56357 -1.06891
LeftHand  0.683403 -11.9175 -6.91436
RightShoulder  0 2.42657e-020 1.07489e-018
RightArm  -42.5962 -12.9883 84.9715
RightForeArm  45.6175 22.5311 4.17147
RightHand  -0.886707 20.5616 -4.51706
LeftUpLeg  -22.2577 19.126 3.93564
LeftLeg  45.2991 5.58998 4.93953
LeftFoot  -0.61984 -0.000410762 -0.0759466
LeftToes  -8.29894 1.33192e-006 1.13262e-007
220
root  -18.3219 33.3783 16.0734 33.5147 -87.0909 -37.1026
RightUpLeg  -2.28844 13.8397 8.74562
RightLeg  18.8476 -1.84422 -0.500394
RightFoot  -1.54376 -0.00496503 -0.0217092
RightToes  -21.9301 -0.0907355 -0.192312
Spine  5.03541 -3.16482 -0.0323711
Spine1  9.98794 -6.19808 -0.643974
HEad  22.5212 -42.7485 29.3046
LeftShoulder1  0 -2.42657e-020 -4.95415e-022
LeftArm  -59.1874 25.6586 -86.5694
LeftForeArm  73.0718 -9.54853 -1.62343
LeftHand  0.667952 -11.8349 -6.81163
RightShoulder  0 2.42657e-020 1.07489e-018
RightArm  -57.2929 -15.7969 83.3082
RightForeArm  47.0313 18.0069 3.2611
RightHand  -1.31287 18.328 -7.75768
LeftUpLeg  -19.503 18.1334 4.05927
LeftLeg  50.0626 7.47322 7.76482
LeftFoot  -2.99563 -0.0157867 -0.603753
LeftToes  -4.17961 1.33192e-006 1.13262e-007
221
root  -17.3014 33.3778 15.8381 34.4704 -86.8334 -37.4951
RightUpLeg  -4.68118 13.721 8.57572
RightLeg  18.9083 -1.62787 -0.443694
RightFoot  -0.19112 -0.000745667 -0.0697891
RightToes  -21.1786 -0.091088 -0.193614
Spine  4.46082 -3.77689 0.386539
Spine1  8.89067 -7.63223 0.390134
HEad  22.6146 -42.3005 28.5983
LeftShoulder1  0 -2.42657e-020 -4.95415e-022
LeftArm  -54.1616 24.6972 -86.374
LeftForeArm  67.7768 -12.0918 -2.09997
LeftHand  0.618621 -11.5446 -6.4877
RightShoulder  0 2.42657e-020 1.07489e-018
RightArm  -69.5142 -18.8856 79.9456
RightForeArm  48.1706 13.9805 2.49153
RightHand  -1.50701 15.6286 -10.5826
LeftUpLeg  -15.9743 16.9773 4.06903
LeftLeg  52.9172 7.32812 8.40804
LeftFoot  -3.83976 -0.0272098 -0.811723
LeftToes  -3.74883 1.33192e-006 1.13262e-007
222
root  -16.2342 33.3294 15.5898 34.1194 -86.1557 -36.3602
RightUpLeg  -7.54976 12.9798 8.50666
RightLeg  19.1777 -1.38402 -0.384497
RightFoot  1.45829 0.00630739 -0.117996
RightToes  -22.1693 -0.0918926 -0.194846
Spine  3.89672 -4.34092 0.80748
Spine1  7.75107 -8.94307 1.42896
HEad  22.0978 -41.7538 28.7627
LeftShoulder1  0 -2.42657e-020 -4.95415e-022
LeftArm  -49.126 23.1103 -85.3876
LeftForeArm  63.0553 -14.4387 -2.54678
LeftHand  0.593604 -11.0076 -6.5287
RightShoulder  0 2.42657e-020 1.07489e-018
RightArm  -78.5449 -22.6171 75.8566
RightForeArm  50.6085 10.7316 1.88869
RightHand  -1.45089 13.7144 -11.6568
LeftUpLeg  -12.051 15.775 4.09165
LeftLeg  53.8137 6.39106 7.58334
LeftFoot  -4.1229 -0.0285976 -0.79449
LeftToes  -3.77038 1.33192e-006 1.13262e-007
223
root  -15.1219 33.245 15.3166 32.5666 -85.0271 -33.8963
RightUpLeg  -10.5826 11.9068 8.58644
RightLeg  19.3859 -1.23659 -0.348592
RightFoot  3.10869 0.0147044 -0.164306
RightToes  -22.4257 -0.0934658 -0.196034
Spine  3.41578 -4.90559 1.15831
Spine1  6.74025 -10.2303 2.32663
HEad  20.9163 -41.0702 29.7068
LeftShoulder1  0 -2.42657e-020 -4.95415e-022
LeftArm  -44.7507 20.7059 -83.7053
LeftForeArm  59.7842 -16.4127 -2.92789
LeftHand  0.560489 -10.6975 -6.35516
RightShoulder  0 2.42657e-020 1.07489e-018
RightArm  -83.7811 -26.6792 72.1311
RightForeArm  53.8416 8.31634 1.44677
RightHand  -1.37825 13.0128 -11.6765
LeftUpLeg  -7.77595 14.1731 4.18836
LeftLeg  52.6274 5.18642 5.91747
LeftFoot  -4.32413 -0.0260174 -0.689147
LeftToes  -4.91321 1.33192e-006 1.13262e-007
224
root  -13.9451 33.141 15.0462 28.6349 -83.4509 -29.0605
RightUpLeg  -13.625 10.6405 8.56758
RightLeg  19.474 -1.42742 -0.404614
RightFoot  4.82667 0.025781 -0.234125
RightToes  -22.5498 -0.096124 -0.197
Spine  3.01024 -5.45585 1.42065
Spine1  5.86481 -11.452 3.02539
HEad  19.3885 -39.9502 30.9872
LeftShoulder1  0 -2.42657e-020 -4.95415e-022
LeftArm  -40.7896 17.7714 -81.7267
LeftForeArm  57.221 -18.5737 -3.35179
LeftHand  0.570488 -10.4337 -6.61639
RightShoulder  0 2.42657e-020 1.07489e-018
RightArm  -85.6636 -30.8038 69.5554
RightForeArm  55.9957 7.04741 1.21592
RightHand  -1.32763 12.9852 -11.2619
LeftUpLeg  -3.38294 12.0173 4.17013
LeftLeg  49.5097 3.08265 3.16098
LeftFoot  -3.48836 -0.0113418 -0.372466
LeftToes  -9.86585 1.33192e-006 1.13262e-007
225
root  -12.7008 33.0035 14.7617 24.5773 -81.5142 -24.2473
RightUpLeg  -16.726 8.84732 8.4534
RightLeg  19.7655 -1.44493 -0.417651
RightFoot  6.58071 0.0384385 -0.291016
RightToes  -23.4891 -0.101751 -0.204266
Spine  2.75767 -5.93495 1.53518
Spine1  5.30992 -12.4602 3.36224
HEad  17.8352 -38.4187 31.9007
LeftShoulder1  0 -2.42657e-020 -4.95415e-022
LeftArm  -36.487 14.6462 -79.5265
LeftForeArm  54.6637 -22.3734 -4.12104
LeftHand  0.554875 -10.1703 -6.6038
RightShoulder  0 2.42657e-020 1.07489e-018
RightArm  -87.1416 -34.3461 68.7039
RightForeArm  57.4867 6.40042 1.09787
RightHand  -1.35305 13.2153 -11.2763
LeftUpLeg  0.782842 9.59129 4.12637
LeftLeg  45.5836 -0.565954 -0.514244
LeftFoot  -2.37539 -0.00143548 -0.069248
LeftToes  -16.1563 1.33192e-006 1.13262e-007
226
root  -11.3468 32.806 14.4705 20.2961 -79.2635 -19.4248
RightUpLeg  -20.025 6.76646 8.13146
RightLeg  20.4721 -1.56558 -0.473741
RightFoot  8.40707 0.0542249 -0.36019
RightToes  -25.0463 -0.111339 -0.216106
Spine  2.74006 -6.31786 1.41891
Spine1  5.24056 -13.2139 3.14968
HEad  16.2367 -36.6104 32.8357
LeftShoulder1  0 -2.42657e-020 -4.95415e-022
LeftArm  -32.158 10.8452 -77.0439
LeftForeArm  52.3036 -26.6764 -5.04556
LeftHand  0.513649 -10.1527 -6.15152
RightShoulder  0 2.42657e-020 1.07489e-018
RightArm  -89.5762 -37.1671 69.9747
RightForeArm  57.4585 6.57556 1.12903
RightHand  -1.34865 13.5291 -10.9686
LeftUpLeg  4.48323 6.76174 3.84076
LeftLeg  41.2591 -4.32419 -3.32602
LeftFoot  -1.86478 0.00151795 0.0932613
LeftToes  -24.8492 1.33192e-006 1.13262e-007
